<svg xmlns="http://www.w3.org/2000/svg">

	<svg id="start" viewBox="0 0 23 22">
		<path xmlns="http://www.w3.org/2000/svg"
			d="M16.5 8.63397C17.1667 9.01888 17.1667 9.98112 16.5 10.366L2.25 18.5933C1.58333 18.9782 0.749999 18.497 0.749999 17.7272L0.75 1.27276C0.75 0.502957 1.58333 0.021832 2.25 0.406732L16.5 8.63397Z" />
	</svg>

	<svg id="pause" viewBox="0 0 23 23">
		<rect xmlns="http://www.w3.org/2000/svg" width="7" height="17" rx="2" />
		<rect xmlns="http://www.w3.org/2000/svg" width="7" height="17" x="10" rx="2" />
	</svg>

	<svg id="stop" viewBox="0 0 17 17">
		<rect xmlns="http://www.w3.org/2000/svg" width="17" height="17" rx="2" />
	</svg>

	<svg id="playIcon" viewBox="0 0 45 45" xmlns="http://www.w3.org/2000/svg">
		<circle opacity="0.8" cx="22.5" cy="22.5" r="22.5" />
		<path
			d="M32.5 21.634C33.1667 22.0189 33.1667 22.9811 32.5 23.366L18.25 31.5933C17.5833 31.9782 16.75 31.497 16.75 30.7272L16.75 14.2728C16.75 13.503 17.5833 13.0218 18.25 13.4067L32.5 21.634Z"
			fill="white" />
	</svg>

</svg>