<svg width="180" height="57" viewBox="0 0 180 57" fill="#F14CA2" xmlns="http://www.w3.org/2000/svg">
<path d="M147.956 0.076678C118.897 -1.41878 91.6165 17.4854 74.7816 29.1614C72.5815 30.6761 60.8162 38.9203 44.4787 44.6145C39.409 46.3784 36.8073 46.8961 35.889 47.0494C35.889 47.0494 21.9619 49.5994 6.48525 44.7296C5.24176 44.3461 3.92174 44.1735 2.71652 43.6942C1.75998 43.3108 0.99476 42.889 0.478233 43.2149C-0.0956858 43.5792 -0.0191633 44.672 -3.26391e-05 44.8062C0.420841 48.7558 18.5567 52.226 34.9707 51.555C46.2387 51.0948 55.7083 48.7366 58.444 48.0081C65.1206 46.2442 66.6511 45.554 81.2668 40.4541C87.4078 38.3067 96.1313 34.6448 102.597 37.5398C106.079 39.0928 108.815 43.8668 107.686 47.3754C106.73 50.3663 103.057 51.8809 100.818 52.2644C99.5366 52.4753 96.7244 52.9354 94.2374 51.5166C93.3765 51.0373 92.4009 50.2512 91.3678 50.558C90.7365 50.7497 90.1243 51.3441 90.0478 51.9576C89.8756 53.6831 94.0461 55.3895 94.5244 55.5812C95.7679 56.0797 103.535 59.224 109.312 54.1624C109.542 53.9707 114.095 49.8486 113.521 43.8668C112.794 36.2745 104.453 32.5933 104.013 32.4016C98.5418 30.1009 90.2965 31.7881 75.1068 38.115C68.9276 40.6841 62.8632 42.8123 56.7414 44.4803C73.7676 35.6609 89.7417 25.0585 106.596 15.9516C118.552 9.4904 131.504 5.25327 145.221 5.08071C157.388 4.92733 168.388 10.8133 171.391 23.448C172.979 30.1201 171.028 37.0222 165.901 41.6619C160.391 46.6468 154.04 46.6468 147.134 47.3754C146.617 47.4329 145.297 47.7205 145.182 48.3532C145.087 48.89 145.928 49.4268 146.196 49.6186C148.473 51.1332 165.021 52.7437 174.414 40.9909C175.657 39.4379 180.153 33.7053 180 25.3269C179.847 17.5237 175.734 12.2321 174.586 10.7941C166.934 1.2462 153.868 0.383439 147.956 0.076678Z"/>
</svg>
