<svg width="176" height="50" viewBox="0 0 176 50" fill="#F14CA2" xmlns="http://www.w3.org/2000/svg">
<path d="M166.733 43.224C164.671 44.1403 162.541 44.6041 160.468 44.6041C158.712 44.6041 156.99 44.276 155.37 43.6086C151.496 42.0023 148.89 38.0882 149.185 34.2987C149.423 31.1652 151.587 28.8688 155.11 28.0091C155.665 27.8733 156.061 28.224 156.175 28.6539C156.288 29.0611 156.118 29.5588 155.574 29.7059C153.614 30.2602 152.062 31.5837 151.417 33.2579C150.658 35.2489 151.824 37.5566 151.994 37.8733C154.101 41.6629 159.471 41.9231 160.468 41.9457C164.705 42.0475 169.191 39.8756 171.661 36.0068C175.671 29.7285 172.092 22.5453 171.514 21.4367C168.274 15.2263 161.737 12.862 159.619 12.1041C133.97 2.83937 65.3069 45.2828 31.0601 39.2082C28.0013 38.6652 20.3998 37.2059 15.5624 30.9729C13.1494 27.862 11.2801 23.3824 11.2121 18.6086C8.05142 19.7172 5.57043 22.1833 4.38092 25.4072C3.14609 28.7444 3.44064 32.3643 5.17393 35.3507C10.7477 44.9095 24.4668 46.6968 35.0025 46.5272C50.0924 46.267 64.242 41.0294 77.9157 35.9729C80.6686 34.9548 83.5235 33.9027 86.333 32.9072C94.6936 29.9434 104.436 26.6516 114.236 25.1131C118.575 24.4231 123.571 23.7896 127.909 24.819C128.804 23.9367 130.209 22.681 132.09 21.4367C141.345 15.3281 155.891 13.8009 163.323 20.7353C163.833 21.2104 168.138 25.4525 167.639 30.6335C167.571 31.3575 167.299 33.5294 165.634 35.1584C164.297 36.4706 161.918 37.5679 161.08 36.8439C161.023 36.7873 160.842 36.6403 160.831 36.414C160.774 35.5543 163.21 35.362 164.592 33.5747C165.951 31.5385 165.385 29.0158 165.204 28.1901C164.49 24.9887 161.828 22.8846 161.103 22.319C154.056 16.8778 141.096 18.4955 133.2 24.8529C132.486 25.4186 131.942 25.9389 131.58 26.2896C132.362 26.7534 133.019 27.2625 133.608 27.862C136.032 30.3054 136.837 34.5588 135.33 36.957C134.265 38.6652 132.237 39.1177 129.62 38.2353C126.573 37.1946 124.658 34.1855 124.975 30.8937C125.089 29.7398 125.44 28.586 126.029 27.4661C118.948 26.2104 110.644 28.6199 103.961 30.5543L102.635 30.9389C94.7163 33.2127 87.1373 36.0068 80.7593 38.4389L79.9096 38.7557C66.5643 43.8348 52.7773 49.0837 38.0159 49.9321C36.8491 50 35.6369 50.0339 34.3681 50.0339C24.4441 50.0339 12.0505 47.8507 5.26456 41.4932C1.91125 38.3484 0.189285 34.4231 0.166626 29.8303C0.143967 25.6448 2.22845 21.233 5.60442 18.3258C7.38303 16.7873 9.38821 15.7806 11.4614 15.3167C11.7219 13.7557 12.1978 12.1946 12.9341 10.6561C17.1031 1.97965 27.4802 -1.44796 35.399 0.610867C38.2878 1.35747 40.9501 2.87331 43.3065 5.10182C45.3116 4.08372 48.3817 3.05431 51.769 3.89141C58.1358 5.44118 61.8176 12.9525 61.1379 18.7217C60.832 21.3235 59.3366 25.2602 57.7846 25.2489C57.3201 25.2489 56.7084 24.9095 56.5384 24.4005C56.3005 23.6878 57.0482 22.8959 57.3654 22.5566L57.4221 22.5C59.2007 20.5543 59.246 15.3394 57.5127 11.7647C55.5302 7.69232 52.8339 6.44797 50.9194 6.11992C48.7896 5.75793 46.9316 6.36879 45.7081 7.00227C46.5918 7.89594 47.6567 9.32127 48.0645 11.2783C48.7442 14.5136 47.4301 18.0996 45.0058 19.6154C44.6206 19.853 43.4197 20.5996 41.9357 20.4186C40.6216 20.2489 39.466 19.4457 38.5031 18.0204C36.1354 14.5023 38.4917 9.79639 38.5937 9.60408C39.1035 8.6086 39.7832 7.70363 40.6329 6.91177C39.6813 6.16517 38.6617 5.54299 37.5741 5.06788C32.5895 2.83937 26.438 3.4163 21.9065 6.51584C18.7797 8.65385 16.5253 11.776 15.4944 15.1358C15.6077 15.1471 15.721 15.1471 15.8343 15.1697C19.4595 15.7353 24.1609 18.1448 26.1321 21.6968C27.2423 23.6991 27.3556 25.7806 26.472 27.862C26.1774 28.5407 25.475 28.6312 24.9312 28.4276C24.3308 28.2014 23.855 27.5905 24.1042 26.8778C24.7613 24.9548 24.2968 23.1335 22.7675 21.6063C20.8642 19.7172 17.6922 18.6086 14.9166 18.371C14.8827 18.9593 14.8827 19.5475 14.928 20.1358C15.4265 26.6063 20.4791 30.543 22.0084 31.7195C30.6863 38.4276 42.5927 36.81 47.7813 35.9615C88.7573 29.1742 136.701 0.565618 160.355 9.60408C162.541 10.4412 169.463 13.0882 173.281 19.8756C174.029 21.2104 177.915 28.1109 174.822 35.2036C172.545 40.4525 167.798 42.7489 166.733 43.224ZM129.677 35.5204C130.175 35.8145 131.149 36.233 132.022 35.8032C132.668 35.4864 133.064 34.7851 133.223 33.7217C133.404 32.4434 132.837 31.052 131.625 29.819C131.048 29.2308 130.368 28.7783 129.586 28.4729C129.178 28.8349 127.864 30.1584 127.909 32.1154C127.909 32.353 128.011 34.5475 129.677 35.5204ZM41.2899 17.0475C42.049 17.4774 42.9779 17.1493 43.2385 17.0362C45.0964 16.2444 45.7421 13.2919 45.0624 11.1765C44.6319 9.8077 43.6916 8.90272 42.9439 8.37105C42.1622 8.9706 41.5392 9.68327 41.0974 10.5091C39.9078 12.7149 39.7606 16.1652 41.2899 17.0475Z" />
</svg>
