<svg width="180" height="57" viewBox="0 0 180 57" fill="#60FF8D" xmlns="http://www.w3.org/2000/svg">
<path d="M32.0438 0.076678C61.1032 -1.41878 88.3835 17.4854 105.218 29.1614C107.418 30.6761 119.184 38.9203 135.521 44.6145C140.591 46.3784 143.193 46.8961 144.111 47.0494C144.111 47.0494 158.038 49.5994 173.515 44.7296C174.758 44.3461 176.078 44.1735 177.283 43.6942C178.24 43.3108 179.005 42.889 179.522 43.2149C180.096 43.5792 180.019 44.672 180 44.8062C179.579 48.7558 161.443 52.226 145.029 51.555C133.761 51.0948 124.292 48.7366 121.556 48.0081C114.879 46.2442 113.349 45.554 98.7332 40.4541C92.5922 38.3067 83.8687 34.6448 77.4025 37.5398C73.9207 39.0928 71.1851 43.8668 72.3138 47.3754C73.2703 50.3663 76.9434 51.8809 79.1817 52.2644C80.4634 52.4753 83.2756 52.9354 85.7626 51.5166C86.6235 51.0373 87.5991 50.2512 88.6322 50.558C89.2635 50.7497 89.8757 51.3441 89.9522 51.9576C90.1244 53.6831 85.9539 55.3895 85.4756 55.5812C84.2321 56.0797 76.4651 59.224 70.6877 54.1624C70.4581 53.9707 65.905 49.8486 66.4789 43.8668C67.2059 36.2745 75.5468 32.5933 75.9868 32.4016C81.4582 30.1009 89.7035 31.7881 104.893 38.115C111.072 40.6841 117.137 42.8123 123.259 44.4803C106.232 35.6609 90.2583 25.0585 73.4042 15.9516C61.4476 9.4904 48.4961 5.25327 34.7795 5.08071C22.6124 4.92733 11.6123 10.8133 8.60881 23.448C7.02097 30.1201 8.97227 37.0222 14.0993 41.6619C19.6089 46.6468 25.9603 46.6468 32.8664 47.3754C33.3829 47.4329 34.703 47.7205 34.8177 48.3532C34.9134 48.89 34.0717 49.4268 33.8038 49.6186C31.5273 51.1332 14.9793 52.7437 5.58617 40.9909C4.34267 39.4379 -0.153015 33.7053 3.05176e-05 25.3269C0.153076 17.5237 4.26614 12.2321 5.41399 10.7941C13.0662 1.2462 26.1325 0.383439 32.0438 0.076678Z"/>
</svg>
